<?xml version="1.0" encoding="UTF-8"?>
<!DOCTYPE svg PUBLIC "-//W3C//DTD SVG 1.1//EN" "http://www.w3.org/Graphics/SVG/1.1/DTD/svg11.dtd">
<svg xmlns="http://www.w3.org/2000/svg" version="1.1" width="500px" height="500px" style="shape-rendering:geometricPrecision; text-rendering:geometricPrecision; image-rendering:optimizeQuality; fill-rule:evenodd; clip-rule:evenodd" xmlns:xlink="http://www.w3.org/1999/xlink">
<g><path style="opacity:1" fill="#fefefe" d="M -0.5,-0.5 C 166.167,-0.5 332.833,-0.5 499.5,-0.5C 499.5,166.167 499.5,332.833 499.5,499.5C 332.833,499.5 166.167,499.5 -0.5,499.5C -0.5,332.833 -0.5,166.167 -0.5,-0.5 Z"/></g>
<g><path style="opacity:1" fill="#272626" d="M 284.5,143.5 C 288.5,144.167 292.5,144.833 296.5,145.5C 290.507,146.496 284.507,147.496 278.5,148.5C 277.73,152.394 276.73,156.227 275.5,160C 282.303,164.573 289.303,168.906 296.5,173C 288.858,171.28 281.358,168.78 274,165.5C 270.653,169.18 266.987,172.513 263,175.5C 262.502,178.482 262.335,181.482 262.5,184.5C 253.5,184.5 244.5,184.5 235.5,184.5C 235.817,181.428 235.484,178.428 234.5,175.5C 230.358,173.191 227.024,170.024 224.5,166C 217.431,167.801 210.431,169.801 203.5,172C 209.034,168.302 214.701,164.802 220.5,161.5C 220.726,157.297 220.726,152.964 220.5,148.5C 192.674,145.37 193.008,143.703 221.5,143.5C 222.675,140.183 223.508,136.85 224,133.5C 219.867,130.369 216.034,126.869 212.5,123C 217.721,125.025 222.887,127.525 228,130.5C 230.513,129.321 232.346,127.487 233.5,125C 231.516,121.224 230.016,117.39 229,113.5C 231.463,116.965 234.296,120.131 237.5,123C 240.447,122.848 243.447,122.681 246.5,122.5C 247.558,110.051 249.225,109.717 251.5,121.5C 253.947,123.223 256.613,123.723 259.5,123C 263.036,119.799 266.203,116.299 269,112.5C 267.499,116.796 265.666,121.13 263.5,125.5C 265.46,127.156 267.46,128.823 269.5,130.5C 286.939,120.225 287.939,121.725 272.5,135C 273.961,137.421 275.294,139.921 276.5,142.5C 279.086,143.48 281.753,143.813 284.5,143.5 Z"/></g>
<g><path style="opacity:1" fill="#f6a624" d="M 261.5,169.5 C 248.949,167.46 239.115,161.126 232,150.5C 229.965,147.439 228.799,144.105 228.5,140.5C 233.763,130.535 242.097,126.368 253.5,128C 270.83,134.645 275.663,146.478 268,163.5C 265.963,165.706 263.797,167.706 261.5,169.5 Z"/></g>
<g><path style="opacity:1" fill="#d88911" d="M 228.5,140.5 C 228.799,144.105 229.965,147.439 232,150.5C 239.115,161.126 248.949,167.46 261.5,169.5C 260.152,170.601 258.652,171.601 257,172.5C 256.503,174.81 256.337,177.143 256.5,179.5C 251.167,179.5 245.833,179.5 240.5,179.5C 240.663,177.143 240.497,174.81 240,172.5C 226.728,164.997 222.894,154.331 228.5,140.5 Z"/></g>
<g><path style="opacity:1" fill="#adadad" d="M 284.5,143.5 C 290.176,143.334 295.843,143.501 301.5,144C 299.975,145.009 298.308,145.509 296.5,145.5C 292.5,144.833 288.5,144.167 284.5,143.5 Z"/></g>
<g><path style="opacity:1" fill="#5e5e5e" d="M 235.5,187.5 C 244.318,186.507 253.318,186.173 262.5,186.5C 262.784,188.415 262.451,190.081 261.5,191.5C 261.5,190.167 261.5,188.833 261.5,187.5C 252.833,187.5 244.167,187.5 235.5,187.5 Z"/></g>
<g><path style="opacity:1" fill="#202020" d="M 235.5,187.5 C 244.167,187.5 252.833,187.5 261.5,187.5C 261.5,188.833 261.5,190.167 261.5,191.5C 260.761,191.369 260.094,191.536 259.5,192C 252.724,201.744 245.724,201.911 238.5,192.5C 237.675,191.614 236.675,191.281 235.5,191.5C 235.5,190.167 235.5,188.833 235.5,187.5 Z"/></g>
<g><path style="opacity:1" fill="#212222" d="M 314.5,278.5 C 316.632,262.513 318.632,246.513 320.5,230.5C 321.059,226.147 321.725,221.814 322.5,217.5C 316.824,217.334 311.157,217.501 305.5,218C 301.509,218.498 297.842,219.665 294.5,221.5C 283.294,224.853 273.127,230.186 264,237.5C 262.981,251.816 262.481,266.15 262.5,280.5C 262.5,281.167 262.5,281.833 262.5,282.5C 261.509,288.979 261.176,295.646 261.5,302.5C 259.708,302.366 258.042,302.699 256.5,303.5C 256.5,292.167 256.5,280.833 256.5,269.5C 256.5,259.833 256.5,250.167 256.5,240.5C 251.833,240.5 247.167,240.5 242.5,240.5C 242.237,251.205 242.57,261.872 243.5,272.5C 243.5,282.833 243.5,293.167 243.5,303.5C 241.5,303.167 239.5,302.833 237.5,302.5C 237.828,290.322 237.495,278.322 236.5,266.5C 236.666,257.161 236.5,247.827 236,238.5C 219.19,224.063 199.69,217.063 177.5,217.5C 179.571,237.526 181.905,257.526 184.5,277.5C 182.023,273.899 179.523,270.233 177,266.5C 174.64,248.144 172.14,229.811 169.5,211.5C 171.831,203.662 175.164,196.162 179.5,189C 206.127,189.82 229.461,198.986 249.5,216.5C 269.407,198.544 292.74,189.544 319.5,189.5C 323.301,196.27 326.968,203.103 330.5,210C 327.388,228.782 324.555,247.615 322,266.5C 319.225,270.396 316.725,274.396 314.5,278.5 Z"/></g>
<g><path style="opacity:1" fill="#ababab" d="M 197.5,200.5 C 196.833,200.5 196.5,200.833 196.5,201.5C 192.187,200.669 187.853,199.836 183.5,199C 187.167,198.333 190.833,198.333 194.5,199C 195.737,199.232 196.737,199.732 197.5,200.5 Z"/></g>
<g><path style="opacity:1" fill="#f1f1f1" d="M 271.5,217.5 C 268.476,217.947 268.143,218.78 270.5,220C 265.546,223.285 260.88,226.952 256.5,231C 251.382,231.888 246.382,231.555 241.5,230C 235.211,224.529 228.544,219.696 221.5,215.5C 224.153,216.676 226.819,217.509 229.5,218C 219.562,210.364 208.562,204.864 196.5,201.5C 196.5,200.833 196.833,200.5 197.5,200.5C 217.919,203.958 235.086,213.291 249,228.5C 266.728,209.589 288.561,199.756 314.5,199C 298.169,200.84 283.836,207.006 271.5,217.5 Z"/></g>
<g><path style="opacity:1" fill="#2e2e2e" d="M 246.5,202.5 C 247.946,201.387 249.613,201.22 251.5,202C 249.83,204.886 248.163,205.052 246.5,202.5 Z"/></g>
<g><path style="opacity:1" fill="#b1b1b1" d="M 221.5,215.5 C 228.544,219.696 235.211,224.529 241.5,230C 246.382,231.555 251.382,231.888 256.5,231C 260.88,226.952 265.546,223.285 270.5,220C 268.143,218.78 268.476,217.947 271.5,217.5C 283.324,211.004 295.991,207.337 309.5,206.5C 312.903,206.561 316.236,207.061 319.5,208C 296.615,208.958 276.615,216.958 259.5,232C 252.833,232.667 246.167,232.667 239.5,232C 221.985,217.084 201.652,209.084 178.5,208C 187.887,206.094 197.22,206.428 206.5,209C 211.823,210.667 216.823,212.834 221.5,215.5 Z"/></g>
<g><path style="opacity:1" fill="#01d5fa" d="M 236.5,266.5 C 236.666,271.844 236.499,277.177 236,282.5C 231.56,287.293 226.393,290.96 220.5,293.5C 212.806,290.381 205.473,291.048 198.5,295.5C 195.041,292.539 191.208,290.206 187,288.5C 186.263,284.793 185.429,281.127 184.5,277.5C 181.905,257.526 179.571,237.526 177.5,217.5C 199.69,217.063 219.19,224.063 236,238.5C 236.5,247.827 236.666,257.161 236.5,266.5 Z"/></g>
<g><path style="opacity:1" fill="#0cd6fb" d="M 320.5,230.5 C 313.577,253.35 302.244,273.684 286.5,291.5C 279.553,292.439 274.553,296.106 271.5,302.5C 270.311,303.429 268.978,303.762 267.5,303.5C 266.081,302.549 264.415,302.216 262.5,302.5C 262.5,295.833 262.5,289.167 262.5,282.5C 262.5,281.833 262.5,281.167 262.5,280.5C 263.827,266.952 265.327,253.286 267,239.5C 275.282,232.033 284.449,226.033 294.5,221.5C 297.842,219.665 301.509,218.498 305.5,218C 311.157,217.501 316.824,217.334 322.5,217.5C 321.725,221.814 321.059,226.147 320.5,230.5 Z"/></g>
<g><path style="opacity:1" fill="#f0f3f3" d="M 294.5,221.5 C 284.449,226.033 275.282,232.033 267,239.5C 265.327,253.286 263.827,266.952 262.5,280.5C 262.481,266.15 262.981,251.816 264,237.5C 273.127,230.186 283.294,224.853 294.5,221.5 Z"/></g>
<g><path style="opacity:1" fill="#0e9fb7" d="M 320.5,230.5 C 318.632,246.513 316.632,262.513 314.5,278.5C 313.776,281.843 312.943,285.176 312,288.5C 307.917,290.457 304.083,292.79 300.5,295.5C 296.378,292.349 291.711,291.016 286.5,291.5C 302.244,273.684 313.577,253.35 320.5,230.5 Z"/></g>
<g><path style="opacity:1" fill="#00d3f7" d="M 256.5,269.5 C 255.569,273.345 253.235,276.011 249.5,277.5C 246.872,276.535 244.872,274.868 243.5,272.5C 242.57,261.872 242.237,251.205 242.5,240.5C 247.167,240.5 251.833,240.5 256.5,240.5C 256.5,250.167 256.5,259.833 256.5,269.5 Z"/></g>
<g><path style="opacity:1" fill="#0d9cb4" d="M 256.5,269.5 C 256.5,280.833 256.5,292.167 256.5,303.5C 254.02,304.912 251.687,306.578 249.5,308.5C 248.817,308.137 248.15,307.804 247.5,307.5C 246.167,306.167 244.833,304.833 243.5,303.5C 243.5,293.167 243.5,282.833 243.5,272.5C 244.872,274.868 246.872,276.535 249.5,277.5C 253.235,276.011 255.569,273.345 256.5,269.5 Z"/></g>
<g><path style="opacity:1" fill="#139bb3" d="M 236.5,266.5 C 237.495,278.322 237.828,290.322 237.5,302.5C 234.413,302.543 231.413,302.71 228.5,303C 226.636,299.073 223.969,295.906 220.5,293.5C 226.393,290.96 231.56,287.293 236,282.5C 236.499,277.177 236.666,271.844 236.5,266.5 Z"/></g>
<g><path style="opacity:1" fill="#a5b8bc" d="M 262.5,282.5 C 262.5,289.167 262.5,295.833 262.5,302.5C 264.415,302.216 266.081,302.549 267.5,303.5C 260.42,303.039 254.42,305.373 249.5,310.5C 248.081,309.995 247.415,308.995 247.5,307.5C 248.15,307.804 248.817,308.137 249.5,308.5C 251.687,306.578 254.02,304.912 256.5,303.5C 258.042,302.699 259.708,302.366 261.5,302.5C 261.176,295.646 261.509,288.979 262.5,282.5 Z"/></g>
<g><path style="opacity:1" fill="#41dcfc" d="M 162.5,333.5 C 167.305,332.513 172.305,332.179 177.5,332.5C 177.662,334.527 177.495,336.527 177,338.5C 175.974,335.307 173.808,333.974 170.5,334.5C 170.5,337.833 170.5,341.167 170.5,344.5C 173.448,344.777 176.281,344.444 179,343.5C 179.667,345.167 179.667,346.833 179,348.5C 176.519,346.686 173.685,346.02 170.5,346.5C 170.5,349.833 170.5,353.167 170.5,356.5C 173.85,356.665 177.183,356.498 180.5,356C 182.333,355.5 183.5,354.333 184,352.5C 184.651,354.235 184.485,355.902 183.5,357.5C 176.524,358.664 169.524,358.831 162.5,358C 163.794,354.26 164.461,350.26 164.5,346C 164.333,342.167 164.167,338.333 164,334.5C 163.617,333.944 163.117,333.611 162.5,333.5 Z"/></g>
<g><path style="opacity:1" fill="#36dbfc" d="M 190.5,332.5 C 198.206,331.665 205.539,332.831 212.5,336C 218.257,343.609 217.591,350.609 210.5,357C 203.582,358.551 196.582,358.884 189.5,358C 191.444,350.778 192.111,343.278 191.5,335.5C 187.507,335.245 184.674,336.911 183,340.5C 182.835,338.322 183.668,336.489 185.5,335C 187.315,334.243 188.981,333.41 190.5,332.5 Z"/></g>
<g><path style="opacity:1" fill="#40dcfc" d="M 249.5,325.5 C 253.893,325.457 254.226,325.957 250.5,327C 248.951,328.214 247.785,329.714 247,331.5C 246.934,339.271 246.267,346.938 245,354.5C 237.658,361.356 230.658,361.023 224,353.5C 223.667,347.167 223.333,340.833 223,334.5C 222.25,333.874 221.416,333.374 220.5,333C 224.167,332.333 227.833,332.333 231.5,333C 230.214,336.233 229.547,339.733 229.5,343.5C 229.667,346.833 229.833,350.167 230,353.5C 233.568,358.41 237.568,358.743 242,354.5C 243.231,346.911 243.897,339.244 244,331.5C 245.36,328.977 247.193,326.977 249.5,325.5 Z"/></g>
<g><path style="opacity:1" fill="#3cdcfc" d="M 290.5,323.5 C 291.873,323.343 293.207,323.51 294.5,324C 289.794,325.105 286.627,327.938 285,332.5C 282.129,341.445 279.462,350.445 277,359.5C 274.077,353.985 271.41,348.318 269,342.5C 266.007,348.799 263.007,355.132 260,361.5C 257.611,363.95 254.778,365.117 251.5,365C 255.679,362.826 258.346,359.493 259.5,355C 257.671,349.513 255.838,344.013 254,338.5C 253.315,335.943 251.815,334.109 249.5,333C 253.167,332.333 256.833,332.333 260.5,333C 259.89,337.714 260.89,342.214 263.5,346.5C 265.935,341.962 268.102,337.296 270,332.5C 272.519,337.044 274.852,341.711 277,346.5C 279.125,340.466 281.458,334.466 284,328.5C 285.965,326.45 288.132,324.783 290.5,323.5 Z"/></g>
<g><path style="opacity:1" fill="#3adcfc" d="M 288.5,333.5 C 293.305,332.513 298.305,332.179 303.5,332.5C 303.662,334.527 303.495,336.527 303,338.5C 302.338,335.583 300.505,334.25 297.5,334.5C 297.5,337.833 297.5,341.167 297.5,344.5C 299.857,344.663 302.19,344.497 304.5,344C 306.039,340.944 306.705,341.444 306.5,345.5C 306.333,346.833 306.167,348.167 306,349.5C 303.847,346.876 301.013,345.876 297.5,346.5C 297.5,349.833 297.5,353.167 297.5,356.5C 300.85,356.665 304.183,356.498 307.5,356C 311.495,350.155 312.495,350.988 310.5,358.5C 303.159,358.666 295.826,358.5 288.5,358C 289.416,357.626 290.25,357.126 291,356.5C 291.667,349.167 291.667,341.833 291,334.5C 290.329,333.748 289.496,333.414 288.5,333.5 Z"/></g>
<g><path style="opacity:1" fill="#34dbfc" d="M 314.5,333.5 C 319.724,332.205 325.057,332.372 330.5,334C 334.01,337.048 334.343,340.381 331.5,344C 337.059,345.458 338.892,348.958 337,354.5C 329.333,361.167 321.667,361.167 314,354.5C 312.75,351.923 312.416,349.257 313,346.5C 316.947,357.233 318.447,356.566 317.5,344.5C 317.333,341.167 317.167,337.833 317,334.5C 316.329,333.748 315.496,333.414 314.5,333.5 Z"/></g>
<g><path style="opacity:1" fill="#fbfefe" d="M 197.5,334.5 C 208.732,334.933 212.565,340.599 209,351.5C 206.575,356.063 202.742,357.729 197.5,356.5C 197.5,349.167 197.5,341.833 197.5,334.5 Z"/></g>
<g><path style="opacity:1" fill="#f8fdfe" d="M 323.5,334.5 C 327.96,336.738 328.627,339.904 325.5,344C 332.025,346.766 333.025,350.766 328.5,356C 326.975,357.009 325.308,357.509 323.5,357.5C 323.5,349.833 323.5,342.167 323.5,334.5 Z"/></g>
</svg>
